# xmcd
# 
# Track frame offsets:
#     150
#     22244
#     40824
#     78754
# 
# Disc length: 1202
# 
# Revision: 0
# Processed by: cddbd v1.5.2PL0 Copyright (c) Steve Scherf et al.
# Submitted via: fre:ac v1.0.31
# 
DISCID=2604b004
DTITLE=Kryptamok - Profaani
DYEAR=2019
DGENRE=Black Metal
TTITLE0=Wala
TTITLE1=Varjoista Kutsuttu
TTITLE2=Kuoleman Katarsis
TTITLE3=Kirous
EXTD=
EXTT0=
EXTT1=
EXTT2=
EXTT3=
PLAYORDER=
